<mxfile host="app.diagrams.net" agent="Mozilla/5.0 (Windows NT 10.0; Win64; x64) AppleWebKit/537.36 (KHTML, like Gecko) Chrome/139.0.0.0 Safari/537.36" version="28.1.0">
  <diagram name="Page-1" id="wUfhC001fMxCbkaeWoK7">
    <mxGraphModel dx="2066" dy="777" grid="1" gridSize="10" guides="1" tooltips="1" connect="1" arrows="1" fold="1" page="1" pageScale="1" pageWidth="850" pageHeight="1100" math="0" shadow="0">
      <root>
        <mxCell id="0" />
        <mxCell id="1" parent="0" />
        <mxCell id="D7Dziw2ZNTNoqOx1RHx--2" value="Network Time Protocol (NTP) Server" style="text;html=1;align=center;verticalAlign=middle;whiteSpace=wrap;rounded=0;" vertex="1" parent="1">
          <mxGeometry x="130" y="200" width="140" height="50" as="geometry" />
        </mxCell>
        <mxCell id="D7Dziw2ZNTNoqOx1RHx--4" value="" style="image;html=1;image=img/lib/clip_art/networking/Wireless_Router_128x128.png" vertex="1" parent="1">
          <mxGeometry x="330" y="95" width="80" height="80" as="geometry" />
        </mxCell>
        <mxCell id="D7Dziw2ZNTNoqOx1RHx--6" value="" style="image;html=1;image=img/lib/clip_art/computers/Server_Rack_128x128.png;rotation=0;" vertex="1" parent="1">
          <mxGeometry x="150" y="80" width="100" height="110" as="geometry" />
        </mxCell>
        <mxCell id="D7Dziw2ZNTNoqOx1RHx--8" value="" style="outlineConnect=0;dashed=0;verticalLabelPosition=bottom;verticalAlign=top;align=center;html=1;shape=mxgraph.aws3.hardware_board;fillColor=#5294CF;gradientColor=none;" vertex="1" parent="1">
          <mxGeometry x="485" y="110" width="50" height="50" as="geometry" />
        </mxCell>
        <mxCell id="D7Dziw2ZNTNoqOx1RHx--9" value="" style="html=1;verticalLabelPosition=bottom;align=center;labelBackgroundColor=#ffffff;verticalAlign=top;strokeWidth=2;strokeColor=#0080F0;shadow=0;dashed=0;shape=mxgraph.ios7.icons.lightbulb;" vertex="1" parent="1">
          <mxGeometry x="610" y="110" width="40" height="50" as="geometry" />
        </mxCell>
        <mxCell id="D7Dziw2ZNTNoqOx1RHx--12" value="Router" style="text;html=1;align=center;verticalAlign=middle;whiteSpace=wrap;rounded=0;" vertex="1" parent="1">
          <mxGeometry x="340" y="210" width="60" height="30" as="geometry" />
        </mxCell>
        <mxCell id="D7Dziw2ZNTNoqOx1RHx--13" value="ESP32 Board" style="text;html=1;align=center;verticalAlign=middle;whiteSpace=wrap;rounded=0;" vertex="1" parent="1">
          <mxGeometry x="470" y="210" width="80" height="30" as="geometry" />
        </mxCell>
        <mxCell id="D7Dziw2ZNTNoqOx1RHx--14" value="RGB Strip" style="text;html=1;align=center;verticalAlign=middle;whiteSpace=wrap;rounded=0;" vertex="1" parent="1">
          <mxGeometry x="600" y="210" width="60" height="30" as="geometry" />
        </mxCell>
        <mxCell id="D7Dziw2ZNTNoqOx1RHx--15" value="" style="endArrow=none;html=1;rounded=0;exitX=1;exitY=0.5;exitDx=0;exitDy=0;entryX=0;entryY=0.5;entryDx=0;entryDy=0;" edge="1" parent="1" source="D7Dziw2ZNTNoqOx1RHx--6" target="D7Dziw2ZNTNoqOx1RHx--4">
          <mxGeometry width="50" height="50" relative="1" as="geometry">
            <mxPoint x="330" y="290" as="sourcePoint" />
            <mxPoint x="380" y="240" as="targetPoint" />
          </mxGeometry>
        </mxCell>
        <mxCell id="D7Dziw2ZNTNoqOx1RHx--16" value="" style="endArrow=none;html=1;rounded=0;exitX=1;exitY=0.5;exitDx=0;exitDy=0;entryX=0;entryY=0.5;entryDx=0;entryDy=0;entryPerimeter=0;" edge="1" parent="1" source="D7Dziw2ZNTNoqOx1RHx--4" target="D7Dziw2ZNTNoqOx1RHx--8">
          <mxGeometry width="50" height="50" relative="1" as="geometry">
            <mxPoint x="550" y="280" as="sourcePoint" />
            <mxPoint x="600" y="230" as="targetPoint" />
          </mxGeometry>
        </mxCell>
        <mxCell id="D7Dziw2ZNTNoqOx1RHx--18" value="&lt;font style=&quot;font-size: 16px;&quot;&gt;&lt;u&gt;Architecture Diagram&lt;/u&gt;&lt;/font&gt;" style="text;html=1;align=center;verticalAlign=middle;whiteSpace=wrap;rounded=0;" vertex="1" parent="1">
          <mxGeometry x="335" y="20" width="180" height="30" as="geometry" />
        </mxCell>
        <mxCell id="D7Dziw2ZNTNoqOx1RHx--19" value="" style="endArrow=none;html=1;rounded=0;exitX=1;exitY=0.5;exitDx=0;exitDy=0;exitPerimeter=0;entryX=0.013;entryY=0.501;entryDx=0;entryDy=0;entryPerimeter=0;" edge="1" parent="1" source="D7Dziw2ZNTNoqOx1RHx--8" target="D7Dziw2ZNTNoqOx1RHx--9">
          <mxGeometry width="50" height="50" relative="1" as="geometry">
            <mxPoint x="580" y="350" as="sourcePoint" />
            <mxPoint x="630" y="300" as="targetPoint" />
          </mxGeometry>
        </mxCell>
      </root>
    </mxGraphModel>
  </diagram>
</mxfile>
